<svg id="Capa_1" data-name="Capa 1" xmlns="http://www.w3.org/2000/svg" viewBox="0 0 112.4 70"><defs><style>.cls-1{fill:#fff;}</style></defs><title>delete_char</title><path class="cls-1" d="M297.2,288.31V223.69a2.69,2.69,0,0,0-2.69-2.69h-80.1a2.69,2.69,0,0,0-2.07,1l-26.93,32.31a2.69,2.69,0,0,0,0,3.45L212.34,290a2.69,2.69,0,0,0,2.07,1h80.1A2.69,2.69,0,0,0,297.2,288.31Zm-80.27-61.92h72.19a2.69,2.69,0,0,1,2.69,2.69v53.85a2.69,2.69,0,0,1-2.69,2.69H216.93a2.69,2.69,0,0,1-2.07-1l-22.44-26.92a2.69,2.69,0,0,1,0-3.45l22.44-26.92A2.69,2.69,0,0,1,216.93,226.38Z" transform="translate(-184.8 -221)"/><path class="cls-1" d="M236.39,274.85l13.14-13.14a2.69,2.69,0,0,1,3.81,0l13.14,13.14a2.69,2.69,0,0,0,3.81,0h0a2.69,2.69,0,0,0,0-3.81L257.14,257.9a2.69,2.69,0,0,1,0-3.81L270.28,241a2.69,2.69,0,0,0,0-3.81h0a2.69,2.69,0,0,0-3.81,0l-13.14,13.14a2.69,2.69,0,0,1-3.81,0l-13.14-13.14a2.69,2.69,0,0,0-3.81,0h0a2.69,2.69,0,0,0,0,3.81l13.14,13.14a2.69,2.69,0,0,1,0,3.81L232.59,271a2.69,2.69,0,0,0,0,3.81h0A2.69,2.69,0,0,0,236.39,274.85Z" transform="translate(-184.8 -221)"/></svg>